<svg width="22" height="22" viewBox="0 0 22 22" fill="none" xmlns="http://www.w3.org/2000/svg">
<path d="M12.8059 16.6935L12.7597 15.945L12.8059 16.6935ZM7.33268 6.82364L7.27619 7.57151C7.4795 7.58686 7.68029 7.51879 7.83234 7.38296C7.98439 7.24713 8.07458 7.05525 8.08216 6.85151L7.33268 6.82364ZM16.5254 13.3708L17.264 13.5007L16.5254 13.3708ZM12.7597 15.945C11.1685 16.043 9.53441 16.2333 7.93558 16.0478C6.37521 15.8668 4.93302 15.3318 3.75939 14.0181L2.64075 15.0174C4.12626 16.6803 5.95231 17.3278 7.76272 17.5378C9.53468 17.7434 11.3739 17.5332 12.852 17.4421L12.7597 15.945ZM3.75939 14.0181C2.61677 12.739 2.3858 11.0261 2.96459 9.70499C3.52252 8.43153 4.89677 7.39179 7.27619 7.57151L7.38916 6.07577C4.45773 5.85436 2.43611 7.17334 1.59067 9.10304C0.766087 10.9851 1.12425 13.3198 2.64075 15.0174L3.75939 14.0181ZM12.852 17.4421C13.3848 17.4093 13.9662 17.3718 14.4961 17.2642C15.0257 17.1567 15.5862 16.9645 16.0342 16.5642L15.0349 15.4456C14.8709 15.5921 14.6086 15.7108 14.1976 15.7942C13.7869 15.8776 13.3101 15.911 12.7597 15.945L12.852 17.4421ZM17.264 13.5007C17.5206 12.0422 17.936 10.2382 17.9307 8.45437C17.9254 6.63182 17.4871 4.7446 16.0016 3.08172L14.8829 4.08104C16.0566 5.3948 16.4261 6.88795 16.4307 8.45877C16.4355 10.0683 16.0629 11.6707 15.7867 13.2409L17.264 13.5007ZM16.0016 3.08172C14.4851 1.38414 12.2054 0.766017 10.2426 1.37399C8.23015 1.99734 6.69245 3.85802 6.5832 6.79577L8.08216 6.85151C8.17084 4.46696 9.35835 3.21819 10.6864 2.80683C12.0641 2.38008 13.7403 2.80198 14.8829 4.08104L16.0016 3.08172ZM15.7867 13.2409C15.6912 13.7839 15.6044 14.254 15.4754 14.6527C15.3464 15.0517 15.199 15.299 15.0349 15.4456L16.0342 16.5642C16.4823 16.1639 16.7363 15.6285 16.9026 15.1144C17.069 14.6 17.1716 14.0264 17.264 13.5007L15.7867 13.2409Z" fill="white"/>
</svg>
